<svg width="1418" height="830" viewBox="0 0 1418 830" fill="none" xmlns="http://www.w3.org/2000/svg">
<g clip-path="url(#clip0)">
<rect width="1600" height="6102" transform="translate(-5 -5090)" fill="#FEF8F5"/>
<path d="M1300.18 170.137H0.183594V830.137H1400.18V270.137C1400.18 214.908 1355.41 170.137 1300.18 170.137Z" fill="#0F264C"/>
<mask id="mask0" mask-type="alpha" maskUnits="userSpaceOnUse" x="0" y="170" width="1401" height="661">
<path d="M1300.18 170.137H0.183594V830.137H1400.18V270.137C1400.18 214.908 1355.41 170.137 1300.18 170.137Z" fill="#0F264C"/>
</mask>
<g mask="url(#mask0)">
<path opacity="0.2" d="M-215.816 486.746C-166.815 423.024 -37.0279 298.767 90.1105 311.511C249.034 327.442 -52.9203 626.137 90.1105 626.137C233.141 626.137 300.684 259.737 403.984 259.737C507.284 259.737 288.764 530.554 403.984 546.485C519.203 562.415 614.557 164.155 741.695 160.172C868.834 156.19 610.584 486.746 817.184 486.746" stroke="url(#paint0_linear)" stroke-width="2"/>
</g>
<path d="M374.072 166.983C372.14 158.134 368.951 149.766 364.7 142.071C364.12 141.013 363.443 139.859 362.767 138.801C357.839 130.625 351.752 123.315 344.699 116.967C343.829 116.101 342.863 115.331 341.897 114.562C334.36 108.31 325.76 103.212 316.485 99.5572C315.325 99.0762 314.166 98.6915 313.006 98.3068C303.73 95.0365 293.682 93.209 283.343 93.0166C282.763 93.0166 282.087 93.0166 281.507 93.0166C280.927 93.0166 280.251 93.0166 279.671 93.0166C269.236 93.209 259.284 95.0365 250.008 98.3068C248.848 98.6915 247.689 99.1724 246.529 99.5572C237.254 103.212 228.654 108.31 221.118 114.562C220.151 115.331 219.185 116.197 218.316 116.967C211.262 123.315 205.078 130.625 200.247 138.801C199.571 139.859 198.991 141.013 198.315 142.071C194.063 149.766 190.875 158.134 188.942 166.983C188.652 168.233 188.459 169.483 188.169 170.734C187.203 176.12 186.72 181.603 186.72 187.181H376.198C376.198 181.603 375.715 176.024 374.748 170.734C374.555 169.483 374.362 168.233 374.072 166.983Z" fill="#0F264C"/>
<path d="M9.62695 173.478C9.62695 192.983 20.857 208.742 34.6687 208.742H59.7104C73.522 208.742 84.623 192.854 84.623 173.478C84.623 153.973 73.3929 138.214 59.5813 138.214C59.3231 138.214 59.194 138.214 58.9359 138.214H34.6687C20.7279 138.214 9.62695 154.102 9.62695 173.478Z" fill="#402B2B"/>
<path d="M205.828 173.09C205.828 192.595 217.058 208.354 230.87 208.354H255.912C269.723 208.354 280.824 192.466 280.824 173.09C280.824 153.585 269.594 137.826 255.782 137.826C255.524 137.826 255.395 137.826 255.137 137.826H230.87C216.929 137.826 205.828 153.585 205.828 173.09Z" fill="#F48767"/>
<path d="M7.94922 170.12L108.761 169.861L97.1441 163.015L20.8573 163.144L7.94922 170.12Z" fill="#402B2B"/>
<path d="M-87.1836 112.638L-87.0545 177.353L-5.21719 177.224L20.8571 163.145L97.144 163.015L120.637 176.966L287.151 176.578C289.862 176.578 292.056 174.383 292.056 171.67L291.927 111.863L-87.1836 112.638Z" fill="#F36F49"/>
<path d="M91.2075 127.363L221.837 127.105L221.579 8.65453C221.579 3.87517 217.707 0 212.802 0L90.8203 0.25836L91.2075 127.363Z" fill="#F48767"/>
<path d="M-112.483 127.88L91.0775 127.493L90.8194 0.387695L-104.093 0.775195C-108.869 0.775195 -112.741 4.65034 -112.741 9.55887L-112.483 127.88Z" fill="#F06A5B"/>
<path d="M189.307 173.09C189.307 192.595 178.206 208.354 164.394 208.354H139.482V196.47C130.317 196.47 122.83 186.007 122.83 173.09C122.83 160.173 130.188 149.71 139.352 149.71V137.826H164.265C178.077 137.955 189.178 153.714 189.307 173.09Z" fill="#F48767"/>
<path d="M118.83 173.349C118.83 189.366 127.995 202.284 139.354 202.154C150.713 202.154 159.749 189.237 159.749 173.22C159.749 157.203 150.584 144.285 139.225 144.415C127.995 144.415 118.83 157.332 118.83 173.349Z" fill="#F48767"/>
<path d="M139.351 192.337C146.838 192.337 152.776 183.811 152.776 173.219C152.776 162.627 146.709 154.231 139.222 154.231C131.736 154.231 125.798 162.756 125.798 173.348C125.798 183.94 131.865 192.337 139.351 192.337ZM139.351 161.981C143.74 161.981 147.354 167.019 147.354 173.219C147.354 179.419 143.74 184.586 139.351 184.586C134.963 184.586 131.348 179.549 131.348 173.348C131.348 167.019 134.834 161.981 139.351 161.981Z" fill="#F7A58D"/>
<path d="M139.352 208.483C153.164 208.483 164.265 192.595 164.265 173.219C164.265 153.844 153.035 137.956 139.223 137.956C125.412 137.956 114.311 153.844 114.311 173.219C114.311 192.595 125.67 208.613 139.352 208.483ZM139.223 144.414C150.582 144.414 159.747 157.331 159.747 173.219C159.747 189.237 150.711 202.154 139.352 202.154C127.993 202.154 118.828 189.237 118.828 173.349C118.828 157.331 127.993 144.414 139.223 144.414Z" fill="#F7A58D"/>
<path d="M135.867 173.22C135.867 170.507 137.416 168.44 139.223 168.44C141.03 168.44 142.579 170.636 142.708 173.22C142.708 175.932 141.16 177.999 139.352 177.999C137.416 178.128 135.867 175.932 135.867 173.22Z" fill="#F48766"/>
<path d="M308.319 76.5993C308.319 77.116 308.707 77.5035 309.094 77.6326C310.127 77.891 313.999 77.891 315.161 77.5035C315.677 77.3743 316.193 76.9868 316.193 76.3409C316.581 66.0072 316.581 55.9318 316.193 46.3731C316.193 45.7272 315.677 45.3397 315.161 45.2105C313.87 44.823 309.352 44.5646 307.932 45.0813C307.416 45.2105 307.029 45.7272 307.029 46.2439C306.77 56.061 307.158 66.1364 308.319 76.5993Z" fill="#F69276"/>
<path d="M301.996 85.7701C302.125 85.7701 302.254 85.7701 302.512 85.641L311.29 81.2491C313.355 80.2157 314.646 78.149 314.646 75.8239L314.517 43.4017C314.517 42.11 313.484 41.0767 312.193 41.0767H288.055C287.41 41.0767 287.022 41.5933 287.022 42.11C287.022 42.7559 287.539 43.1434 288.055 43.1434H312.193C312.322 43.1434 312.322 43.2726 312.322 43.2726L312.451 75.6947C312.451 77.2448 311.548 78.5365 310.257 79.1824L301.479 83.5742C300.963 83.8326 300.705 84.4784 300.963 84.9951C301.221 85.641 301.609 85.7701 301.996 85.7701Z" fill="#F69276"/>
<path d="M108.761 127.105C108.761 127.105 112.117 127.105 117.281 127.105H137.805C153.165 127.105 156.779 134.726 166.202 153.456L196.02 153.326C196.02 153.326 196.02 151.131 196.02 147.385L309.869 147.126C310.386 137.697 311.418 118.579 311.418 100.495C311.418 99.8494 311.418 99.3327 311.418 98.6868C311.418 93.52 310.515 87.8364 308.966 82.1528C302.899 59.9353 287.538 36.2968 281.213 27.6423C279.148 24.8005 277.341 22.3463 275.792 20.1504C271.403 14.3376 268.434 11.3667 262.884 11.3667L124.896 11.7542C122.057 11.7542 119.475 13.6918 118.701 16.4044C106.825 60.0645 108.632 93.2616 108.761 127.105ZM225.063 27.1256C224.934 26.4798 225.45 25.9631 226.096 25.9631L268.047 25.8339C270.5 25.8339 272.952 27.1257 274.501 29.3216C290.894 51.6683 297.478 72.0774 299.93 83.8321L302.512 96.2326C302.899 98.041 301.737 99.4619 299.93 99.4619H289.733C288.055 99.4619 286.248 98.6868 284.957 97.3951L264.046 77.3735C261.722 75.1775 258.624 73.8859 255.655 73.8859H230.614L225.063 27.1256Z" fill="#F36F49"/>
<path d="M203.376 82.541C204.28 86.6745 205.312 90.9372 206.216 95.4583C206.861 98.5584 209.572 100.754 212.67 100.883C253.459 102.304 287.279 102.434 311.417 100.625C311.417 99.9793 311.417 99.4626 311.417 98.8167C311.417 93.6498 310.513 87.9663 308.964 82.2827L203.376 82.541Z" fill="#F6977C"/>
<path d="M127.993 26.0926L169.945 25.9634C172.397 25.9634 174.592 27.2551 175.753 29.451C187.5 51.7978 189.952 72.2069 189.952 83.9616V96.3621C189.952 98.1705 188.532 99.5914 186.725 99.5914H176.528C174.85 99.5914 173.172 98.8164 172.139 97.5246L155.359 77.503C153.422 75.3071 150.712 73.8862 147.743 74.0154H122.701L126.703 27.2551C126.703 26.6092 127.219 26.0926 127.993 26.0926Z" fill="#F36F49"/>
<path d="M108.761 127.105C108.761 127.105 112.117 127.105 117.281 127.105H137.805C153.165 127.105 156.779 134.726 166.202 153.456L196.02 153.326C196.02 153.326 196.02 151.131 196.02 147.385L309.869 147.126C310.386 137.697 311.418 118.579 311.418 100.495C287.28 102.304 253.332 102.304 212.671 100.754C209.574 100.624 206.863 98.4285 206.217 95.3284C205.314 90.8074 204.281 86.4155 203.378 82.4112C197.827 58.7728 191.76 41.8512 183.757 23.5088C183.112 22.088 184.145 20.4087 185.694 20.4087L275.792 20.1504C271.403 14.3376 268.434 11.3667 262.884 11.3667L124.896 11.7542C122.057 11.7542 119.475 13.6918 118.701 16.4044C106.825 60.0645 108.632 93.2616 108.761 127.105ZM122.573 74.015L126.574 27.2548C126.574 26.609 127.22 26.0923 127.865 26.0923L169.817 25.9631C172.269 25.9631 174.463 27.2548 175.625 29.4508C187.372 51.7975 189.824 72.2066 189.824 83.9612V96.3617C189.824 98.1702 188.404 99.591 186.597 99.591H176.4C174.722 99.591 173.044 98.816 172.011 97.5243L155.23 77.5026C153.294 75.3067 150.584 73.8859 147.615 74.015H122.573Z" fill="#F7A58D"/>
<path d="M113.794 123.747C113.794 125.684 115.343 127.105 117.279 127.105H137.803C153.164 127.105 156.778 134.726 166.201 153.456L196.019 153.327C196.019 153.327 196.019 151.131 196.019 147.385L195.889 95.0705C195.889 69.1069 191.243 52.7021 178.98 26.7386C177.173 22.8634 173.171 20.4092 168.912 20.4092L124.508 20.5383C123.475 20.5383 122.701 21.1842 122.442 22.0884C113.665 55.4147 113.665 109.667 113.794 123.747ZM122.572 74.0155L126.573 27.2553C126.573 26.6094 127.218 26.0927 127.864 26.0927L169.815 25.9636C172.268 25.9636 174.462 27.2553 175.624 29.4512C187.37 51.7979 189.823 72.2071 189.823 83.9617V96.3622C189.823 98.1706 188.403 99.5915 186.596 99.5915H176.398C174.72 99.5915 173.042 98.8165 172.01 97.5247L155.229 77.5031C153.293 75.3072 150.582 73.8863 147.613 74.0155H122.572Z" fill="#F58A6B"/>
<path d="M128.252 27.6426L169.945 27.5135C171.752 27.5135 173.43 28.5468 174.334 30.0969C186.467 53.2187 188.403 73.757 188.403 83.8324V96.2329C188.403 97.1371 187.629 97.9122 186.725 97.9122H176.528C175.237 97.9122 174.075 97.3955 173.301 96.4913L156.52 76.4696C154.326 73.8862 151.099 72.3361 147.614 72.3361H124.379L128.252 27.6426ZM127.993 26.0926C127.348 26.0926 126.703 26.6092 126.703 27.2551L122.701 74.0154H147.743C150.712 74.0154 153.422 75.3071 155.359 77.503L172.139 97.5246C173.172 98.8164 174.85 99.5914 176.528 99.5914H186.725C188.532 99.5914 189.952 98.1705 189.952 96.3621V83.9616C189.952 72.2069 187.5 51.7978 175.753 29.451C174.592 27.2551 172.397 25.9634 169.945 25.9634L127.993 26.0926Z" fill="#F7A58D"/>
<path d="M195.892 122.713V147.385L240.941 147.256C240.425 140.797 239.263 134.597 237.327 128.784C236.552 126.459 234.616 124.78 232.163 124.392C222.224 123.23 209.574 122.713 195.892 122.713ZM287.023 147.256H309.354C309.741 141.83 310.128 133.047 310.515 123.1C305.094 123.359 300.06 123.875 295.542 124.521C293.09 124.909 291.153 126.588 290.379 128.913C288.572 134.597 287.539 140.797 287.023 147.256Z" fill="#F6977C"/>
<path d="M196.02 172.186L300.446 171.928C307.545 171.928 313.354 166.115 313.354 159.011V156.815C313.354 154.748 311.676 153.198 309.74 153.198L196.149 153.456L196.02 172.186Z" fill="#F6977C"/>
<path d="M176.787 172.187H196.02V153.457H166.461L169.688 166.503C170.462 169.861 173.431 172.187 176.787 172.187Z" fill="#F7A58D"/>
<path d="M130.833 103.855C135.222 103.984 143.741 104.888 143.741 107.988C143.741 111.088 136.255 112.122 130.188 112.122C124.121 112.122 123.475 108.763 122.959 107.342C122.572 105.921 122.185 103.725 130.833 103.855Z" fill="#F6977C"/>
<path d="M131.221 107.213C129.156 107.213 126.961 106.567 125.929 105.534C126.703 105.146 127.865 104.759 129.672 104.759C133.028 104.759 138.45 105.146 141.289 106.438C140.902 106.696 139.869 107.213 138.191 107.213C136.126 107.213 133.415 107.213 131.221 107.213Z" fill="#F47B58"/>
<path d="M139.869 109.667C140.644 109.667 141.031 109.797 141.16 109.926C138.837 110.959 134.577 111.347 132.512 111.347C129.543 111.347 127.477 111.347 126.832 110.701C127.348 110.313 128.51 109.667 129.672 109.667C131.221 109.797 138.837 109.667 139.869 109.667Z" fill="#F47B58"/>
<path d="M196.02 147.514C196.02 151.26 196.02 153.456 196.02 153.456L309.482 153.198C309.482 153.198 309.611 151.002 309.869 147.256L196.02 147.514Z" fill="#F58A6B"/>
<g opacity="0.2">
<path d="M244.942 121.421V146.093L283.021 145.964V121.292C283.021 118.321 280.311 115.996 276.954 115.996H250.88C247.653 116.125 244.942 118.58 244.942 121.421Z" fill="#F16036"/>
</g>
<path d="M295.8 145.189H303.803C305.868 145.189 307.676 143.51 307.676 141.314V137.31C307.676 135.243 305.998 133.435 303.803 133.435H295.8C293.735 133.435 291.928 135.114 291.928 137.31V141.314C291.928 143.51 293.735 145.189 295.8 145.189Z" fill="white"/>
<path d="M220.027 145.448H228.03C230.095 145.448 231.902 143.769 231.902 141.573V137.569C231.902 135.502 230.224 133.693 228.03 133.693H220.027C217.961 133.693 216.154 135.373 216.154 137.569V141.573C216.154 143.64 217.832 145.448 220.027 145.448Z" fill="white"/>
<path d="M168.395 76.858C168.395 77.3746 168.783 77.7622 169.17 77.8913C174.204 78.408 179.496 78.408 184.918 77.7622C185.563 77.633 185.951 77.2455 185.951 76.5996C186.338 66.2659 186.338 56.1905 185.951 46.6318C185.951 45.9859 185.434 45.5984 184.918 45.4693C179.367 44.8234 173.817 44.8234 168.008 45.4693C167.492 45.5984 167.105 46.1151 167.105 46.6318C166.717 56.3197 167.234 66.395 168.395 76.858Z" fill="#F7A58D"/>
<path d="M188.402 86.0289C188.789 86.0289 189.177 85.7706 189.306 85.3831C189.564 84.8664 189.306 84.2205 188.789 83.9622L180.012 79.6995C178.721 79.0536 177.818 77.6327 177.818 76.2118L177.688 43.7897C177.688 43.6605 177.818 43.6605 177.818 43.6605H183.239C183.884 43.6605 184.272 43.1438 184.272 42.6271C184.272 41.9813 183.755 41.5938 183.239 41.5938H177.818C176.527 41.5938 175.494 42.6271 175.494 43.9188L175.623 76.341C175.623 78.6661 176.914 80.7329 178.979 81.7663L187.757 86.0289C188.144 86.0289 188.273 86.0289 188.402 86.0289Z" fill="#F69276"/>
<path d="M247.604 173.716L284.134 173.636L284.11 162.657L247.58 162.736L247.604 173.716Z" fill="#F8B4A0"/>
<path opacity="0.6" d="M183.508 23.9C191.511 42.2424 197.449 59.1639 203.128 82.8023L308.716 82.544C302.65 60.3264 287.289 36.688 280.964 28.0335C278.899 25.1917 277.092 22.7374 275.543 20.5415L185.444 20.7999C183.895 20.929 182.862 22.4791 183.508 23.9Z" fill="url(#paint1_linear)"/>
<path d="M125.508 185.739C123.611 176.998 120.48 168.732 116.306 161.131C115.737 160.086 115.073 158.946 114.409 157.901C109.571 149.825 103.594 142.604 96.669 136.333C95.8152 135.478 94.8666 134.718 93.9179 133.958C86.5183 127.782 78.0752 122.747 68.968 119.136C67.8296 118.661 66.6912 118.281 65.5528 117.901C56.4457 114.671 46.5796 112.865 36.4289 112.675C35.8597 112.675 35.1956 112.675 34.6264 112.675C34.0572 112.675 33.3932 112.675 32.824 112.675C22.5784 112.865 12.8071 114.671 3.69997 117.901C2.56157 118.281 1.4232 118.756 0.284801 119.136C-8.82237 122.747 -17.2655 127.782 -24.6651 133.958C-25.6137 134.718 -26.5624 135.573 -27.4162 136.333C-34.3414 142.604 -40.4129 149.825 -45.1562 157.901C-45.8203 158.946 -46.3895 160.086 -47.0535 161.131C-51.2277 168.732 -54.3582 176.998 -56.2556 185.739C-56.5402 186.974 -56.7299 188.21 -57.0145 189.445C-57.9632 194.765 -58.4375 200.181 -58.4375 205.692H127.595C127.595 200.181 127.121 194.67 126.172 189.445C125.983 188.21 125.793 186.974 125.508 185.739Z" fill="#FCDDD4"/>
</g>
<defs>
<linearGradient id="paint0_linear" x1="300.684" y1="270.455" x2="300.684" y2="728.847" gradientUnits="userSpaceOnUse">
<stop stop-color="#F37753"/>
<stop offset="1" stop-color="white" stop-opacity="0"/>
</linearGradient>
<linearGradient id="paint1_linear" x1="232.764" y1="0.781219" x2="283.316" y2="121.884" gradientUnits="userSpaceOnUse">
<stop stop-color="#F7A58D"/>
<stop offset="0.926161" stop-color="white"/>
</linearGradient>
<clipPath id="clip0">
<rect width="1600" height="6102" fill="white" transform="translate(-5 -5090)"/>
</clipPath>
</defs>
</svg>
