<svg width="539" height="450" viewBox="0 0 539 450" fill="none" xmlns="http://www.w3.org/2000/svg">
<g clip-path="url(#clip0)">
<rect width="1600" height="6102" transform="translate(-240 -2106)" fill="#FEF8F5"/>
<path d="M221 35.0515C137.128 -22.219 3.67358 42.6873 12.9996 179.234C28.902 412.052 191.136 439.096 332.999 412.052C518.635 376.664 561.464 164.297 390.054 179.234C252.493 191.221 325.84 106.639 221 35.0515Z" fill="#FCDDD4"/>
<mask id="mask0" mask-type="alpha" maskUnits="userSpaceOnUse" x="-44" y="-17" width="584" height="501">
<path d="M220.999 35.0516C137.127 -22.2188 3.6726 42.6874 12.9987 179.234C28.901 412.052 191.135 439.096 332.998 412.052C518.634 376.664 561.463 164.298 390.053 179.234C252.492 191.221 325.839 106.64 220.999 35.0516Z" fill="#FCDDD4"/>
</mask>
<g mask="url(#mask0)">
<path opacity="0.7" d="M-11.9285 50.1379C15.7024 38.0064 80.8793 20.5246 120.539 47.6494C170.115 81.5555 16.7505 125.389 63.947 151.186C111.144 176.983 199.336 68.5911 233.422 87.2225C267.509 105.854 146.69 155.561 181.844 181.585C216.998 207.608 320.099 93.7477 362.768 115.368C405.436 136.988 260.763 199.189 328.935 236.452" stroke="url(#paint0_linear)" stroke-width="2"/>
<path d="M158 439.051C158 411.437 180.386 389.051 208 389.051L475 389.051L475 499.051L158 499.051L158 439.051Z" fill="#F58A6B"/>
</g>
<path fill-rule="evenodd" clip-rule="evenodd" d="M45.367 193.676C47.0038 195.023 48.2836 196.466 49.2933 197.854L51.9248 194.343C50.677 193.019 49.461 191.814 48.007 190.673L45.367 193.676Z" fill="#3E1A0B"/>
<path fill-rule="evenodd" clip-rule="evenodd" d="M53.9001 199.808C52.4205 197.143 49.1171 196.243 46.4834 197.841L42.9931 200.052C40.3594 201.651 39.522 205.192 40.8826 207.889C42.3621 210.554 45.6655 211.454 48.2992 209.856L51.7895 207.645C54.4232 206.046 55.4115 202.592 53.9001 199.808Z" fill="#F69E9F"/>
<path fill-rule="evenodd" clip-rule="evenodd" d="M195.099 88.245L133.271 98.4338L129.978 78.5241C129.65 76.826 128.045 75.5978 126.196 75.8382L77.1859 83.868C75.4875 84.1955 74.2589 85.8003 74.4992 87.6493L77.7926 107.559L19.5125 117.18C18.0522 117.444 16.9107 118.897 17.1744 120.358L57.0656 363.512C57.3292 364.972 58.7833 366.113 60.2436 365.849L235.862 337.033C237.322 336.77 238.464 335.316 238.2 333.856L198.19 90.7334C198.132 89.0905 196.591 88.1003 195.099 88.245Z" fill="url(#paint1_linear)"/>
<path fill-rule="evenodd" clip-rule="evenodd" d="M186.519 119.048L32.1873 144.456C30.846 144.688 29.9107 145.959 30.1425 147.3L64.7013 357.697C64.933 359.038 66.2042 359.973 67.5455 359.741L221.877 334.333C223.218 334.101 224.154 332.83 223.922 331.489L189.363 121.092C189.131 119.751 187.86 118.816 186.519 119.048Z" fill="#F36F49"/>
<path fill-rule="evenodd" clip-rule="evenodd" d="M186.044 111.591L35.4662 136.248C34.1248 136.48 33.3086 137.719 33.5404 139.06L67.2678 344.45C67.4995 345.791 68.7389 346.607 70.0802 346.376L220.745 321.567C222.086 321.335 222.902 320.096 222.671 318.755L188.943 113.365C188.624 112.175 187.385 111.359 186.044 111.591Z" fill="#FAFBFC"/>
<path opacity="0.8" d="M180.514 120.472L43.532 143.017C42.7858 143.089 42.1354 143.518 41.7868 144.122C41.4382 144.726 41.2405 145.416 41.3128 146.162L72.4421 335.666C72.5144 336.412 72.9438 337.062 73.5475 337.411C74.1512 337.759 74.8421 337.957 75.5882 337.884L212.602 315.458C213.348 315.386 213.998 314.956 214.347 314.353C214.695 313.749 214.893 313.058 214.821 312.312L183.66 122.69C183.587 121.944 183.158 121.294 182.554 120.945C181.951 120.597 181.26 120.399 180.514 120.472ZM213.718 312.48C213.845 312.957 213.703 313.377 213.409 313.711C213.116 314.045 212.791 314.26 212.315 314.387L75.4521 336.9C74.976 337.028 74.5551 336.885 74.2213 336.592C73.8876 336.299 73.6729 335.974 73.5453 335.498L42.3842 145.875C42.2566 145.399 42.399 144.978 42.6924 144.645C42.9857 144.311 43.3109 144.096 43.7871 143.969L180.769 121.424C181.245 121.296 181.666 121.438 182 121.732C182.333 122.025 182.548 122.35 182.676 122.826L213.718 312.48Z" fill="#F58A6B"/>
<path fill-rule="evenodd" clip-rule="evenodd" d="M102.471 85.3842C99.5507 85.9117 97.5931 88.6047 98.1203 91.5249C98.6476 94.445 101.341 96.4021 104.262 95.8746C107.182 95.3471 109.14 92.654 108.613 89.7339C108.117 86.9328 105.392 84.8567 102.471 85.3842Z" fill="#FAFBFC"/>
<path fill-rule="evenodd" clip-rule="evenodd" d="M143.594 93.627L66.5906 106.224C64.8922 106.551 63.6636 108.156 63.9039 110.005L67.4928 131.494C67.8203 133.192 69.4252 134.42 71.2746 134.18L148.278 121.583C149.976 121.256 151.205 119.651 150.964 117.802L147.463 96.162C147.016 94.4958 145.292 93.2995 143.594 93.627Z" fill="#F58A6B"/>
<path opacity="0.8" fill-rule="evenodd" clip-rule="evenodd" d="M102.151 103.711L72.8168 108.51C71.4755 108.742 70.5402 110.013 70.772 111.354L73.5615 127.955C73.7932 129.296 75.0644 130.231 76.4057 129.999L105.74 125.2C107.082 124.968 108.017 123.697 107.785 122.356L104.996 105.755C104.764 104.414 103.493 103.479 102.151 103.711Z" fill="#F36F49"/>
<path opacity="0.2" d="M98.0607 158.02L98.4004 160.086L179.024 146.833L178.684 144.767L98.0607 158.02Z" fill="#EE4D47"/>
<path opacity="0.2" d="M98.9103 163.251L99.25 165.318L179.873 152.064L179.533 149.998L98.9103 163.251Z" fill="#EE4D47"/>
<path opacity="0.2" d="M139.971 161.704L140.311 163.771L180.683 157.134L180.343 155.067L139.971 161.704Z" fill="#EE4D47"/>
<path opacity="0.2" d="M99.757 168.342L100.097 170.409L137.915 164.192L137.576 162.125L99.757 168.342Z" fill="#EE4D47"/>
<path opacity="0.2" d="M103.621 192.205L103.961 194.272L184.584 181.019L184.244 178.952L103.621 192.205Z" fill="#EE4D47"/>
<path opacity="0.2" d="M104.471 197.437L104.811 199.504L185.434 186.25L185.094 184.183L104.471 197.437Z" fill="#EE4D47"/>
<path opacity="0.2" d="M145.655 195.87L145.995 197.937L186.367 191.3L186.028 189.233L145.655 195.87Z" fill="#EE4D47"/>
<path opacity="0.2" d="M105.32 202.528L105.659 204.594L143.478 198.378L143.138 196.311L105.32 202.528Z" fill="#EE4D47"/>
<path opacity="0.2" d="M108.678 222.865L109.018 224.932L189.641 211.678L189.301 209.612L108.678 222.865Z" fill="#EE4D47"/>
<path opacity="0.2" d="M109.528 228.096L109.867 230.163L190.49 216.91L190.151 214.843L109.528 228.096Z" fill="#EE4D47"/>
<path opacity="0.2" d="M150.711 226.529L151.051 228.596L191.423 221.959L191.083 219.893L150.711 226.529Z" fill="#EE4D47"/>
<path opacity="0.2" d="M110.374 233.188L110.714 235.255L148.533 229.038L148.193 226.971L110.374 233.188Z" fill="#EE4D47"/>
<path opacity="0.2" d="M113.848 254.445L114.188 256.512L194.811 243.259L194.471 241.192L113.848 254.445Z" fill="#EE4D47"/>
<path opacity="0.2" d="M114.719 259.798L115.059 261.865L195.682 248.612L195.342 246.545L114.719 259.798Z" fill="#EE4D47"/>
<path opacity="0.2" d="M155.901 258.231L156.24 260.298L196.613 253.662L196.273 251.595L155.901 258.231Z" fill="#EE4D47"/>
<path opacity="0.2" d="M115.565 264.89L115.904 266.957L153.723 260.74L153.383 258.673L115.565 264.89Z" fill="#EE4D47"/>
<path opacity="0.2" d="M118.939 285.822L119.278 287.889L199.901 274.636L199.562 272.569L118.939 285.822Z" fill="#EE4D47"/>
<path opacity="0.2" d="M119.788 291.054L120.128 293.121L200.751 279.867L200.411 277.8L119.788 291.054Z" fill="#EE4D47"/>
<path opacity="0.2" d="M160.972 289.486L161.312 291.553L201.684 284.917L201.344 282.85L160.972 289.486Z" fill="#EE4D47"/>
<path opacity="0.2" d="M120.758 296.126L121.098 298.192L158.916 291.976L158.577 289.909L120.758 296.126Z" fill="#EE4D47"/>
<path opacity="0.2" d="M60.0205 158.37L59.0363 158.506L59.1724 159.49L62.2022 177.94L62.3383 178.924L63.3225 178.788L83.1169 175.525L84.1011 175.388L83.965 174.404L80.9353 155.955L80.7992 154.971L79.815 155.107L60.0205 158.37ZM81.8925 173.812L63.9155 176.715L61.126 160.115L78.9839 157.243L81.8925 173.812Z" fill="#EE4D47"/>
<path opacity="0.2" d="M65.6574 193.214L64.6732 193.35L64.9283 194.302L67.9581 212.752L68.0942 213.736L69.0783 213.6L88.8728 210.337L89.857 210.201L89.7209 209.217L86.6911 190.767L86.555 189.783L85.5708 189.919L65.6574 193.214ZM87.5293 208.656L69.6713 211.527L66.8818 194.927L84.7398 192.055L87.5293 208.656Z" fill="#EE4D47"/>
<path opacity="0.2" d="M71.1494 226.566L70.1652 226.702L70.3013 227.686L73.3311 246.136L73.4672 247.12L74.4514 246.984L94.2458 243.721L95.23 243.584L95.0939 242.6L92.0641 224.151L91.9281 223.167L90.9439 223.303L71.1494 226.566ZM93.0214 242.008L75.1634 244.879L72.3739 228.279L90.2318 225.407L93.0214 242.008Z" fill="#EE4D47"/>
<path opacity="0.2" d="M76.7051 260.156L75.7209 260.292L75.857 261.276L78.9187 279.845L79.0548 280.829L80.039 280.693L99.8334 277.43L100.818 277.294L100.681 276.31L97.6517 257.86L97.5156 256.876L96.5314 257.012L76.7051 260.156ZM98.577 275.598L80.7191 278.47L77.9296 261.869L95.7875 258.998L98.577 275.598Z" fill="#EE4D47"/>
<path opacity="0.2" d="M82.0616 292.524L81.0774 292.661L81.2134 293.645L84.2432 312.094L84.3793 313.078L85.3635 312.942L105.158 309.679L106.142 309.543L106.006 308.559L102.976 290.109L102.84 289.125L101.856 289.261L82.0616 292.524ZM103.902 307.847L86.0437 310.719L83.2541 294.118L101.112 291.247L103.902 307.847Z" fill="#EE4D47"/>
<path d="M72.3355 167.188L62.0086 161.026L60.8438 162.869L72.1953 169.522L73.1008 170.045L73.6237 169.139L87.593 146.517L85.7819 145.472L72.3355 167.188Z" fill="#EE4D47"/>
<path d="M78.2277 202.984L67.9008 196.822L66.736 198.665L78.0875 205.318L78.9612 205.722L79.516 204.935L93.4534 182.194L91.6423 181.149L78.2277 202.984Z" fill="#F58A6B"/>
<path d="M89.507 271.268L79.0611 265.138L78.0153 266.949L89.2478 273.634L90.1534 274.156L90.6762 273.251L104.765 250.597L102.922 249.433L89.507 271.268Z" fill="#F58A6B"/>
<path fill-rule="evenodd" clip-rule="evenodd" d="M60.1058 377.239C59.0344 377.526 58.4244 378.582 58.7114 379.653C58.9984 380.725 60.0549 381.334 61.1263 381.047C62.1976 380.76 62.8076 379.704 62.5206 378.633C62.2336 377.562 61.1771 376.952 60.1058 377.239Z" fill="#FAFBFC"/>
<path d="M89.4957 368.838C90.2407 368.504 90.5734 367.629 90.2387 366.884C89.904 366.139 89.0286 365.806 88.2836 366.141C87.5385 366.476 87.2059 367.351 87.5406 368.096C87.8753 368.841 88.7506 369.173 89.4957 368.838Z" fill="#FAFBFC"/>
<path d="M130.28 356.777C130.872 356.618 131.223 356.01 131.064 355.419C130.906 354.827 130.298 354.476 129.706 354.635C129.114 354.793 128.763 355.401 128.922 355.993C129.08 356.585 129.688 356.936 130.28 356.777Z" fill="#FAFBFC"/>
<path fill-rule="evenodd" clip-rule="evenodd" d="M151.495 352.623C150.542 352.879 150.019 353.784 150.275 354.736C150.53 355.688 151.435 356.211 152.388 355.956C153.34 355.701 153.863 354.795 153.608 353.843C153.384 353.01 152.447 352.368 151.495 352.623Z" fill="#FAFBFC"/>
<path fill-rule="evenodd" clip-rule="evenodd" d="M183.748 345.384C183.39 345.48 183.216 345.782 183.312 346.139C183.407 346.496 183.709 346.67 184.066 346.575C184.424 346.479 184.598 346.177 184.502 345.82C184.526 345.431 184.105 345.289 183.748 345.384Z" fill="#FAFBFC"/>
<path fill-rule="evenodd" clip-rule="evenodd" d="M250.373 323.578C249.778 323.737 249.548 324.309 249.676 324.785C249.835 325.38 250.407 325.61 250.883 325.482C251.479 325.323 251.708 324.751 251.581 324.275C251.572 323.767 250.968 323.418 250.373 323.578Z" fill="#FAFBFC"/>
<path d="M361.479 132.052C361.479 121.006 352.524 112.052 341.479 112.052H265.999C254.954 112.052 245.999 121.006 245.999 132.052V142.454C245.999 153.5 254.954 162.454 265.999 162.454H361.479V132.052Z" fill="white"/>
<circle r="3.82804" transform="matrix(-1 0 0 1 335.32 137.572)" fill="#F4A984"/>
<circle r="3.82804" transform="matrix(-1 0 0 1 319.369 137.572)" fill="#F4A984"/>
<circle r="3.82804" transform="matrix(-1 0 0 1 303.419 137.572)" fill="#F4A984"/>
<circle r="3.82804" transform="matrix(-1 0 0 1 287.469 137.572)" fill="#F4A984"/>
<circle r="3.82804" transform="matrix(-1 0 0 1 271.519 137.572)" fill="#F4A984"/>
<path d="M212 299.552C168.4 299.552 190.5 236.552 207 205.051C215.833 198.385 237.5 184.952 253.5 184.552C269.5 184.152 279.5 204.052 282.5 214.052C280.667 214.218 278.8 221.852 286 251.052C293.2 280.252 289.667 295.552 287 299.552H212Z" fill="#402B2B"/>
<path d="M257.599 284.592C253.487 277.403 256.571 266.277 256.571 266.277L243.891 268.845L231.211 266.277C231.211 266.277 232.753 271.583 232.239 277.403C236.694 282.538 246.976 292.124 257.599 284.592Z" fill="url(#paint2_linear)"/>
<path d="M255.797 270.285C253.022 271.957 249.515 273.504 245.59 274.691C240.666 276.18 235.975 276.831 232.292 276.691C232.629 271.158 231.211 266.277 231.211 266.277L243.891 268.845L256.571 266.277C256.571 266.277 256.124 267.89 255.797 270.285Z" fill="url(#paint3_linear)" style="mix-blend-mode:multiply"/>
<path d="M212.876 294.691C220.244 301.196 234.809 315.403 244.062 315.403C253.316 315.403 269.766 301.88 277.134 295.376C273.535 294.007 262.569 289.727 259.998 287.502C259.142 286.646 258.285 285.619 257.771 284.592C247.147 292.124 236.866 282.538 232.41 277.232C232.068 280.998 231.04 284.763 228.127 287.331C225.213 289.727 216.303 293.322 212.876 294.691Z" fill="url(#paint4_linear)"/>
<path d="M278.776 227.422C277.576 225.197 275.692 224.854 274.492 225.197C274.492 225.197 271.065 214.242 268.666 206.197C260.612 202.431 253.073 199.179 243.991 198.494V198.323C242.62 198.323 240.221 198.323 238.85 198.323C233.196 198.494 227.541 198.665 222.058 199.692C220.687 200.035 219.316 200.377 217.945 200.377C216.232 209.449 213.319 225.368 212.119 225.197H211.948C211.776 225.197 211.776 225.197 211.605 225.025C210.406 224.683 209.035 225.025 207.835 227.079C205.779 230.845 207.835 238.377 210.577 240.602C211.948 241.629 213.147 242.485 214.004 242.998C215.375 249.845 217.774 256.349 221.372 260.286C230.797 270.385 239.536 272.611 241.935 272.953C242.106 272.953 242.449 272.953 242.62 272.953C242.62 272.953 242.792 272.953 242.963 272.953C244.676 272.782 254.101 271.07 264.211 260.115C267.809 256.349 270.38 253.611 271.922 243.512C272.95 242.998 273.978 242.142 275.692 240.773C278.776 238.719 280.832 231.188 278.776 227.422Z" fill="url(#paint5_linear)"/>
<path d="M243.736 237.052C243.736 237.052 243.868 240.908 242.825 242.177C241.782 243.446 239.803 244.674 239.64 245.623C239.449 246.391 240.277 247.739 241.722 248.07C243.167 248.4 243.402 248.918 243.402 248.918C243.402 248.918 240.735 249.699 239.067 247.926C237.399 246.154 238.661 244.297 239.883 243.185C241.105 242.073 241.654 241.619 242.176 240.985C242.849 240.327 243.736 237.052 243.736 237.052Z" fill="#D87C60"/>
<path d="M254.066 254.052H233.364C232.689 254.052 232.212 254.707 232.483 255.326C233.943 258.661 237.524 263.552 243.5 263.552C249.451 263.552 253.284 258.7 254.929 255.367C255.237 254.743 254.762 254.052 254.066 254.052Z" fill="#D87C60"/>
<path fill-rule="evenodd" clip-rule="evenodd" d="M253.976 257.052H233.367C233.015 256.454 232.721 255.869 232.484 255.326C232.213 254.707 232.689 254.052 233.365 254.052H254.066C254.762 254.052 255.238 254.743 254.93 255.367C254.667 255.898 254.349 256.469 253.976 257.052Z" fill="white"/>
<path d="M263.598 185.999C289.129 189.251 283.132 220.404 278.163 225.881L274.5 232.052C272.667 228.885 268.9 220.152 268.5 210.552C264.667 213.052 253.2 218.052 238 218.052C219 218.052 213.792 221.197 212 230.052C207.545 220.124 204.481 200.035 215.447 188.738C230.526 172.99 253.316 169.224 263.598 185.999Z" fill="#402B2B"/>
<path d="M212.019 229.989L212.876 237.35C212.876 237.35 210.305 235.98 209.791 232.557C209.62 230.503 210.477 229.134 212.019 229.989Z" fill="#ED8A40"/>
<path d="M274.219 229.989L273.362 237.35C273.362 237.35 275.933 235.98 276.447 232.557C276.618 230.503 275.933 229.134 274.219 229.989Z" fill="#ED8A40"/>
<path d="M260.685 238.312C260.685 239.853 259.486 241.222 257.772 241.222C256.23 241.222 254.859 240.024 254.859 238.312C254.859 236.772 256.059 235.402 257.772 235.402C259.486 235.402 260.685 236.772 260.685 238.312Z" fill="#402B2B"/>
<path d="M230.184 241.222C231.792 241.222 233.097 239.919 233.097 238.312C233.097 236.705 231.792 235.402 230.184 235.402C228.575 235.402 227.271 236.705 227.271 238.312C227.271 239.919 228.575 241.222 230.184 241.222Z" fill="#402B2B"/>
<path d="M222.541 232.912C223.79 231.55 227.446 228.825 232.078 228.825" stroke="#402B2B" stroke-width="2"/>
<path d="M255.58 228.942C257.427 228.862 261.939 229.52 265.215 232.796" stroke="#402B2B" stroke-width="2"/>
<path d="M305.065 333.547C305.75 315.061 300.096 304.106 291.528 299.484C282.96 294.863 262.741 289.043 262.055 288.872L243.72 303.421L226.242 288.872C225.557 289.043 204.823 294.863 196.427 299.484C187.859 304.106 182.204 315.061 182.89 333.547C183.404 348.439 182.375 371.889 182.547 389.006H305.579C305.579 371.889 304.551 348.439 305.065 333.547Z" fill="url(#paint6_linear)"/>
<path d="M253.83 295.205L249.032 292.98L243.548 303.079L238.065 292.98L233.096 295.205L240.293 306.845V389.006H246.975V306.331L253.83 295.205Z" fill="#EE4D47" fill-opacity="0.29" style="mix-blend-mode:multiply"/>
<path d="M232.239 277.232C232.068 282.196 239.094 295.034 239.094 295.034L226.927 306.844L222.986 289.728C222.986 289.728 226.927 279.286 232.239 277.232Z" fill="white"/>
<path d="M255.543 277.232C255.714 282.196 247.832 295.205 247.832 295.205L260.684 306.844L264.625 289.556C264.625 289.556 260.855 279.286 255.543 277.232Z" fill="white"/>
<path d="M245.607 309.754C245.607 310.781 244.75 311.637 243.722 311.637C242.694 311.637 241.837 310.781 241.837 309.754C241.837 308.727 242.694 307.872 243.722 307.872C244.75 307.872 245.607 308.727 245.607 309.754Z" fill="white"/>
<path d="M245.606 327.214C245.606 328.241 244.749 329.097 243.721 329.097C242.693 329.097 241.836 328.241 241.836 327.214C241.836 326.187 242.693 325.331 243.721 325.331C244.749 325.331 245.606 326.015 245.606 327.214Z" fill="white"/>
<path d="M245.606 344.331C245.606 345.358 244.749 346.213 243.721 346.213C242.693 346.213 241.836 345.358 241.836 344.331C241.836 343.304 242.693 342.448 243.721 342.448C244.749 342.448 245.606 343.304 245.606 344.331Z" fill="white"/>
<path d="M245.606 363.33C245.606 364.358 244.749 365.213 243.721 365.213C242.693 365.213 241.836 364.358 241.836 363.33C241.836 362.303 242.693 361.448 243.721 361.448C244.749 361.448 245.606 362.303 245.606 363.33Z" fill="white"/>
<path d="M185.631 304.619C185.631 304.619 167.467 353.403 166.097 361.448C164.897 369.493 175.178 388.15 179.976 388.835C187.002 389.862 192.656 387.808 199.682 375.826C206.536 363.844 205.337 312.664 205.337 312.664L185.631 304.619Z" fill="url(#paint7_linear)"/>
<path d="M205.508 307.872C205.508 307.872 204.308 366.754 201.738 374.114C197.625 385.925 187.173 389.177 187.173 389.177H198.825C198.825 389.177 207.907 383.186 208.763 365.213C209.278 354.43 207.393 320.025 206.365 308.556C206.022 305.475 205.508 307.872 205.508 307.872Z" fill="#EE4D47" fill-opacity="0.29" style="mix-blend-mode:multiply"/>
<path d="M209.535 302.315L189.834 294.364L185.726 304.521L205.427 312.472L209.535 302.315Z" fill="white"/>
<path d="M283.989 316.259C283.989 316.259 276.963 349.637 276.449 363.331C275.935 377.024 276.449 388.835 276.449 388.835L281.418 389.177C281.418 389.177 282.618 329.268 283.989 316.259Z" fill="#EE4D47" fill-opacity="0.29" style="mix-blend-mode:multiply"/>
<path d="M224.356 270.043C214.931 270.043 211.847 265.422 209.962 258.404C209.105 254.638 208.763 244.539 208.763 244.197H211.504C211.504 244.368 211.847 254.467 212.704 257.89C214.417 264.566 216.988 267.989 226.241 267.304L226.412 270.043C225.727 270.043 225.041 270.043 224.356 270.043Z" fill="white"/>
<path d="M243.72 176.927C236.18 176.242 218.873 176.756 210.991 191.819C210.991 191.819 213.047 195.413 215.446 193.017C224.014 185.314 236.009 185.143 243.377 185.143C250.917 185.143 263.426 185.143 271.822 193.017C274.392 195.242 276.277 191.819 276.277 191.819C268.566 176.756 251.259 176.242 243.72 176.927Z" fill="white"/>
<path d="M284.33 228.62C284.33 228.62 283.988 218.179 283.816 215.269C283.474 209.62 282.617 200.377 280.732 195.413C274.563 178.467 254.515 175.215 244.062 175.215C233.438 175.215 213.047 178.467 206.878 195.242C205.165 200.035 204.308 208.593 203.794 214.413C203.623 217.836 203.451 228.449 203.451 228.449H206.364C206.364 228.449 206.364 217.836 206.707 214.413C207.05 209.962 207.906 203.458 210.134 197.296C215.275 182.747 234.295 181.206 243.548 181.206C252.973 181.206 272.336 182.747 277.476 197.296C279.875 204.143 280.732 211.161 281.075 215.611C281.246 218.521 281.417 228.62 281.417 228.62H284.33Z" fill="url(#paint8_linear)"/>
<path d="M207.05 226.566H203.28V242.656H207.05V226.566Z" fill="white"/>
<path d="M213.733 245.737H209.449C207.393 245.737 205.68 244.025 205.68 241.971V227.251C205.68 225.197 207.393 223.485 209.449 223.485H213.733C214.247 223.485 214.59 223.827 214.59 224.341V244.71C214.59 245.223 214.247 245.737 213.733 245.737Z" fill="url(#paint9_linear)"/>
<path d="M201.738 244.025H201.567C200.71 244.025 200.024 243.341 200.024 242.485V226.395C200.024 225.539 200.71 224.854 201.567 224.854H201.738C202.595 224.854 203.28 225.539 203.28 226.395V242.485C203.28 243.341 202.595 244.025 201.738 244.025Z" fill="url(#paint10_linear)"/>
<path d="M280.177 242.934H283.947V226.844H280.177V242.934Z" fill="white"/>
<path d="M273.707 246.079H277.991C280.047 246.079 281.76 244.367 281.76 242.313V227.593C281.76 225.539 280.047 223.827 277.991 223.827H273.707C273.193 223.827 272.85 224.169 272.85 224.683V245.052C272.679 245.566 273.193 246.079 273.707 246.079Z" fill="url(#paint11_linear)"/>
<path d="M285.53 244.368H285.702C286.559 244.368 287.244 243.683 287.244 242.827V226.737C287.244 225.881 286.559 225.197 285.702 225.197H285.53C284.674 225.197 283.988 225.881 283.988 226.737V242.827C283.988 243.683 284.674 244.368 285.53 244.368Z" fill="url(#paint12_linear)"/>
<path d="M234.467 268.331C234.467 270.043 232.411 271.584 229.669 271.584C227.099 271.584 224.871 270.214 224.871 268.331C224.871 266.448 226.927 265.079 229.669 265.079C232.239 265.079 234.467 266.448 234.467 268.331Z" fill="url(#paint13_linear)"/>
<path fill-rule="evenodd" clip-rule="evenodd" d="M198.654 257.377L198.655 257.376C200.249 255.884 202.074 254.854 203.828 253.985C206.981 251.945 210.657 249.625 212.02 248.989C214.762 247.62 216.475 250.016 212.534 253.44C211.679 254.183 210.686 254.974 209.657 255.758C211.797 254.938 213.691 254.234 214.59 253.953C217.503 253.098 218.874 255.836 214.247 258.404C212.365 259.448 210.002 260.577 207.86 261.55L208.593 263.881C208.593 263.881 210.65 261.998 211.335 261.485C215.619 258.575 217.846 260.971 215.962 263.539C213.905 266.106 210.821 273.467 211.849 278.602C212.534 282.025 212.02 286.818 211.164 290.584C210.307 294.178 204.995 304.791 204.995 304.791L191.287 299.998C191.287 299.998 194.371 296.746 193.857 288.872C193.705 286.291 192.677 283.576 191.654 280.875C190.371 277.485 189.096 274.119 189.573 271.07C190.43 266.278 197.455 258.576 198.655 257.377L198.654 257.377Z" fill="url(#paint14_linear)"/>
<path opacity="0.3" d="M210.992 277.917C211.335 273.638 210.992 272.782 210.649 270.728C210.306 268.331 210.821 265.25 209.792 263.025C208.593 260.629 206.708 259.26 203.452 259.944C199.168 260.971 197.455 263.196 197.455 263.196C197.455 263.196 200.882 261.827 202.596 261.314C205.166 260.629 207.736 260.8 208.764 263.881C209.278 265.764 209.621 268.331 209.964 270.214C210.135 271.584 211.163 277.575 210.306 277.746C209.45 277.746 207.565 277.232 206.708 274.151C206.537 274.836 206.365 279.458 205.851 279.458C202.767 279.115 202.424 276.719 202.253 274.151C202.253 272.953 202.081 271.241 201.739 269.016C200.539 270.899 197.626 272.611 196.427 273.467C197.798 274.665 200.368 277.575 201.396 278.773C203.281 280.998 204.994 284.421 205.337 288.016C209.964 283.566 207.393 278.944 207.222 277.403C208.422 278.773 210.821 279.8 210.992 277.917Z" fill="#EB5046"/>
<path d="M405.309 277.917C405.309 275.349 403.252 273.467 400.511 273.467H273.88C271.31 273.467 269.082 275.521 269.082 277.917V356.655H405.137V277.917H405.309Z" fill="url(#paint15_linear)"/>
<path d="M274.051 371.547H400.682C403.252 371.547 405.48 369.493 405.48 367.096V356.826H269.424V367.096C269.253 369.493 271.481 371.547 274.051 371.547Z" fill="#CA3F3A"/>
<path d="M357.159 369.664H323.23V385.754H357.159V369.664Z" fill="#CA3F3A"/>
<path d="M361.27 369.664H327.342V385.754H361.27V369.664Z" fill="url(#paint16_linear)"/>
<path d="M355.616 384.213H313.634V388.835H355.616V384.213Z" fill="url(#paint17_linear)"/>
<path d="M369.324 384.213H327.342V388.835H369.324V384.213Z" fill="url(#paint18_linear)"/>
<path d="M412.334 277.917C412.334 275.349 410.278 273.467 407.537 273.467H281.077C278.507 273.467 276.279 275.521 276.279 277.917V356.655H412.334V277.917Z" fill="url(#paint19_linear)"/>
<path d="M281.077 371.547H407.708C410.278 371.547 412.506 369.493 412.506 367.096V356.826H276.45V367.096C276.279 369.493 278.335 371.547 281.077 371.547Z" fill="url(#paint20_linear)"/>
<path opacity="0.2" d="M356.644 307.872C356.644 314.718 351.16 320.196 344.306 320.196C337.452 320.196 331.969 314.718 331.969 307.872C331.969 301.025 337.452 295.547 344.306 295.547C351.16 295.547 356.644 301.025 356.644 307.872Z" fill="white"/>
<path d="M241.664 384.213H212.362V388.664H241.664V384.213Z" fill="url(#paint21_linear)"/>
<path d="M290.329 384.213H228.812V388.664H290.329V384.213Z" fill="url(#paint22_linear)"/>
<g clip-path="url(#clip1)">
<path d="M481 355.022H401V388.953H481V355.022Z" fill="#FCDDD4"/>
<path fill-rule="evenodd" clip-rule="evenodd" d="M441.445 346.177V346.254C442.079 344.485 443.35 341.669 445.488 337.469C449.73 329.427 454.465 323.249 454.465 323.249C454.465 323.249 452.393 330.114 448.152 338.155C444.401 345.352 442.347 348.256 441.445 348.696V349.106C442.532 347.677 444.924 345.226 449.138 341.391C456.142 335.115 463.047 330.604 463.047 330.604C463.047 330.604 458.608 336.39 451.604 342.764C447.497 346.451 444.775 348.661 443.076 349.794C444.806 348.725 447.496 347.258 451.407 345.314C460.088 340.999 467.979 338.351 467.979 338.351C467.979 338.351 461.864 342.764 453.183 347.079C446.572 350.44 442.993 351.867 441.445 352.14V352.435C442.837 351.664 446.398 350.428 453.183 348.55C462.751 345.902 471.136 344.726 471.136 344.726C471.136 344.726 463.836 347.962 454.268 350.61C451.148 351.473 448.658 352.107 446.708 352.549C448.683 352.22 451.235 351.866 454.465 351.492C464.625 350.217 473.108 350.315 473.108 350.315C473.108 350.315 465.118 352.473 454.958 353.65C446.778 354.676 442.754 354.812 441.445 354.52V354.728H440.458V354.588C440.276 354.641 440.022 354.684 439.668 354.728H436.808C434.638 354.63 431.382 354.434 426.845 353.846C416.684 352.571 408.694 350.511 408.694 350.511C408.694 350.511 417.178 350.413 427.338 351.688C430.391 352.042 432.838 352.369 434.765 352.669C432.867 352.232 430.481 351.621 427.535 350.806C417.868 348.158 410.667 344.922 410.667 344.922C410.667 344.922 419.052 346.098 428.62 348.746C435.574 350.67 439.141 351.921 440.458 352.687V352.341C438.966 352.091 435.377 350.634 428.621 347.275C419.94 342.96 413.824 338.547 413.824 338.547C413.824 338.547 421.716 341.195 430.396 345.51C434.063 347.333 436.656 348.735 438.391 349.785C436.663 348.599 434.017 346.435 430.199 342.96C423.195 336.586 418.756 330.8 418.756 330.8C418.756 330.8 425.661 335.213 432.665 341.587C435.675 344.327 437.756 346.361 439.096 347.82C437.945 346.331 436.158 343.389 433.552 338.449C429.311 330.408 427.239 323.543 427.239 323.543C427.239 323.543 432.073 329.721 436.216 337.763C438.606 342.402 439.913 345.377 440.458 347.101V346.179C439.928 344.962 439.57 341.445 439.57 334.429C439.57 325.406 440.951 318.052 440.951 318.052C440.951 318.052 442.332 325.406 442.332 334.429C442.332 341.441 441.974 344.958 441.445 346.177ZM440.458 349.049C440.312 349.038 440.121 348.928 439.879 348.706C440.106 348.976 440.298 349.218 440.458 349.435V349.049ZM440.458 350.91C440.217 350.847 439.905 350.711 439.515 350.493C439.893 350.744 440.206 350.967 440.458 351.164V350.91ZM441.445 350.892C441.716 350.685 442.049 350.452 442.45 350.191C442.037 350.437 441.704 350.598 441.445 350.683V350.892ZM440.458 353.57C440.14 353.591 439.692 353.569 439.096 353.497C439.727 353.658 440.173 353.808 440.458 353.947V353.57ZM441.445 353.79C441.815 353.62 442.403 353.431 443.246 353.227C442.443 353.347 441.851 353.394 441.445 353.379V353.79Z" fill="#F37753"/>
<path d="M435.624 354.728H417.178C420.039 354.532 423.491 354.434 427.141 354.434C430.692 354.434 433.553 354.532 435.624 354.728Z" fill="#F37753"/>
<path d="M446.179 354.728H464.625C461.765 354.532 458.312 354.336 454.662 354.434C451.012 354.532 448.25 354.63 446.179 354.728Z" fill="#F37753"/>
</g>
<path d="M314 193.052C314 182.006 322.954 173.052 334 173.052H446.619C457.664 173.052 466.619 182.006 466.619 193.052V219.664C466.619 230.71 457.664 239.664 446.619 239.664H314V193.052Z" fill="#F69477"/>
<circle opacity="0.5" cx="348.571" cy="206.78" r="5.05919" fill="white"/>
<circle opacity="0.5" cx="369.651" cy="206.78" r="5.05919" fill="white"/>
<circle opacity="0.5" cx="390.731" cy="206.78" r="5.05919" fill="white"/>
<circle opacity="0.5" cx="411.811" cy="206.78" r="5.05919" fill="white"/>
<circle opacity="0.5" cx="432.891" cy="206.78" r="5.05919" fill="white"/>
</g>
<defs>
<linearGradient id="paint0_linear" x1="197.408" y1="72.1181" x2="114.956" y2="222.965" gradientUnits="userSpaceOnUse">
<stop stop-color="#F37753"/>
<stop offset="1" stop-color="white" stop-opacity="0"/>
</linearGradient>
<linearGradient id="paint1_linear" x1="110.522" y1="38.0345" x2="158.127" y2="364.013" gradientUnits="userSpaceOnUse">
<stop stop-color="#F7A58D"/>
<stop offset="1" stop-color="#F58A6B"/>
</linearGradient>
<linearGradient id="paint2_linear" x1="258.788" y1="276.548" x2="255.733" y2="242.762" gradientUnits="userSpaceOnUse">
<stop stop-color="#FFB3B6"/>
<stop offset="1" stop-color="#FFC8C1"/>
</linearGradient>
<linearGradient id="paint3_linear" x1="231.38" y1="272.589" x2="260.114" y2="282.937" gradientUnits="userSpaceOnUse">
<stop stop-color="#FFB3B6" stop-opacity="0.31"/>
<stop offset="1" stop-color="#FFC8C1"/>
</linearGradient>
<linearGradient id="paint4_linear" x1="284.363" y1="330.46" x2="278.234" y2="267.259" gradientUnits="userSpaceOnUse">
<stop stop-color="#FFB3B6"/>
<stop offset="1" stop-color="white"/>
</linearGradient>
<linearGradient id="paint5_linear" x1="282.873" y1="263.908" x2="276.989" y2="213.279" gradientUnits="userSpaceOnUse">
<stop stop-color="#FFB3B6"/>
<stop offset="1" stop-color="#FFC8C1"/>
</linearGradient>
<linearGradient id="paint6_linear" x1="244.053" y1="265.693" x2="244.053" y2="391.748" gradientUnits="userSpaceOnUse">
<stop stop-color="#F4A984"/>
<stop offset="1" stop-color="#EE4D47"/>
</linearGradient>
<linearGradient id="paint7_linear" x1="185.709" y1="285.072" x2="185.709" y2="391.379" gradientUnits="userSpaceOnUse">
<stop stop-color="#F4A984"/>
<stop offset="1" stop-color="#EE4D47"/>
</linearGradient>
<linearGradient id="paint8_linear" x1="243.891" y1="162.853" x2="243.891" y2="230.082" gradientUnits="userSpaceOnUse">
<stop stop-color="#F4A984"/>
<stop offset="1" stop-color="#EE4D47"/>
</linearGradient>
<linearGradient id="paint9_linear" x1="210.135" y1="218.334" x2="210.135" y2="246.346" gradientUnits="userSpaceOnUse">
<stop stop-color="#F4A984"/>
<stop offset="1" stop-color="#EE4D47"/>
</linearGradient>
<linearGradient id="paint10_linear" x1="201.652" y1="220.417" x2="201.652" y2="244.55" gradientUnits="userSpaceOnUse">
<stop stop-color="#F4A984"/>
<stop offset="1" stop-color="#EE4D47"/>
</linearGradient>
<linearGradient id="paint11_linear" x1="277.288" y1="218.676" x2="277.288" y2="246.688" gradientUnits="userSpaceOnUse">
<stop stop-color="#F4A984"/>
<stop offset="1" stop-color="#EE4D47"/>
</linearGradient>
<linearGradient id="paint12_linear" x1="285.616" y1="220.759" x2="285.616" y2="244.892" gradientUnits="userSpaceOnUse">
<stop stop-color="#F4A984"/>
<stop offset="1" stop-color="#EE4D47"/>
</linearGradient>
<linearGradient id="paint13_linear" x1="229.669" y1="263.573" x2="229.669" y2="271.762" gradientUnits="userSpaceOnUse">
<stop stop-color="#F4A984"/>
<stop offset="1" stop-color="#EE4D47"/>
</linearGradient>
<linearGradient id="paint14_linear" x1="203" y1="302.552" x2="225.5" y2="218.552" gradientUnits="userSpaceOnUse">
<stop stop-color="#FFB3B6"/>
<stop offset="0.239165" stop-color="#FFC5C7"/>
<stop offset="1" stop-color="white"/>
</linearGradient>
<linearGradient id="paint15_linear" x1="318.105" y1="524.315" x2="318.105" y2="39.2427" gradientUnits="userSpaceOnUse">
<stop stop-color="#FFEDBA"/>
<stop offset="0.423008" stop-color="#F16D5E"/>
<stop offset="0.651925" stop-color="#EE4D47"/>
</linearGradient>
<linearGradient id="paint16_linear" x1="339.551" y1="418.182" x2="339.551" y2="324.361" gradientUnits="userSpaceOnUse">
<stop stop-color="#FFEDBA"/>
<stop offset="1" stop-color="#EE4D47"/>
</linearGradient>
<linearGradient id="paint17_linear" x1="328.741" y1="406.324" x2="328.741" y2="379.824" gradientUnits="userSpaceOnUse">
<stop stop-color="#FFEDBA"/>
<stop offset="1" stop-color="#EE4D47"/>
</linearGradient>
<linearGradient id="paint18_linear" x1="342.449" y1="398.149" x2="342.449" y2="371.201" gradientUnits="userSpaceOnUse">
<stop stop-color="#FFEDBA"/>
<stop offset="1" stop-color="#EE4D47"/>
</linearGradient>
<linearGradient id="paint19_linear" x1="325.24" y1="411.093" x2="325.24" y2="194.459" gradientUnits="userSpaceOnUse">
<stop stop-color="#FFEDBA"/>
<stop offset="1" stop-color="#EE4D47"/>
</linearGradient>
<linearGradient id="paint20_linear" x1="325.405" y1="401.215" x2="325.405" y2="315.379" gradientUnits="userSpaceOnUse">
<stop stop-color="#FFEDBA"/>
<stop offset="1" stop-color="#EE4D47"/>
</linearGradient>
<linearGradient id="paint21_linear" x1="222.907" y1="405.505" x2="222.907" y2="379.986" gradientUnits="userSpaceOnUse">
<stop stop-color="#FFEDBA"/>
<stop offset="1" stop-color="#EE4D47"/>
</linearGradient>
<linearGradient id="paint22_linear" x1="250.95" y1="384.184" x2="250.95" y2="364.769" gradientUnits="userSpaceOnUse">
<stop stop-color="#FFEDBA"/>
<stop offset="1" stop-color="#EE4D47"/>
</linearGradient>
<clipPath id="clip0">
<rect width="1600" height="6102" fill="white" transform="translate(-240 -2106)"/>
</clipPath>
<clipPath id="clip1">
<rect width="80" height="71" fill="white" transform="translate(401 318.052)"/>
</clipPath>
</defs>
</svg>
